<?xml version="1.0" encoding="utf-8"?>
<!-- Generator: Adobe Illustrator 28.1.0, SVG Export Plug-In . SVG Version: 6.00 Build 0)  -->
<svg version="1.1" id="Lager_1" xmlns="http://www.w3.org/2000/svg" xmlns:xlink="http://www.w3.org/1999/xlink" x="0px" y="0px"
	 viewBox="0 0 50 50" style="enable-background:new 0 0 50 50;" xml:space="preserve">
<style type="text/css">
	.st0{fill:#F7F0F0;}
	.st1{fill:#1F1F20;}
</style>
<circle class="st0" cx="25.2" cy="24.7" r="23.6"/>
<path class="st1" d="M25.2,6.9C17.9,6.9,12,11.9,12,18c0,1.6,0.4,3,1.1,4.4l0,0l0.4,0.6L25,43c0.1,0.2,0.3,0.2,0.4,0l11.3-19.6l0,0
	l0.5-0.9c0.7-1.4,1.1-2.8,1.1-4.4C38.3,11.9,32.4,6.9,25.2,6.9z M25.2,24.3c-3.5,0-6.4-2.9-6.4-6.4s2.9-6.4,6.4-6.4s6.4,2.9,6.4,6.4
	S28.7,24.3,25.2,24.3z"/>
</svg>
