<?xml version="1.0" encoding="utf-8"?>
<!-- Generator: Adobe Illustrator 28.1.0, SVG Export Plug-In . SVG Version: 6.00 Build 0)  -->
<svg version="1.1" id="Lager_1" xmlns="http://www.w3.org/2000/svg" xmlns:xlink="http://www.w3.org/1999/xlink" x="0px" y="0px"
	 viewBox="0 0 50 50" style="enable-background:new 0 0 50 50;" xml:space="preserve">
<style type="text/css">
	.st0{fill:#F7F0F0;}
	.st1{fill:#1F1F20;}
	.st2{fill:none;}
</style>
<circle class="st0" cx="25" cy="24.5" r="23.6"/>
<path class="st1" d="M43.4,14c-0.8-0.9-2-1.5-3.3-1.5H9.9c-1,0-1.9,0.3-2.6,0.9c-1.1,0.8-1.9,2.1-1.9,3.6v16c0,2.5,2,4.4,4.5,4.4
	h30.3c2.4,0,4.4-2,4.4-4.4V17C44.6,15.8,44.2,14.8,43.4,14z M20.2,22.3l-8.7,10.9c-0.4,0.5-1.2,0.6-1.7,0.2l-0.1-0.1
	c-0.5-0.4-0.6-1.2-0.2-1.7l8.7-10.9c0.2-0.2,0.5-0.4,0.8-0.4l1.4,0.8C20.5,21.5,20.5,22,20.2,22.3z M41.6,33.4L41.6,33.4
	c-0.6,0.5-1.4,0.4-1.8-0.1l-8.7-10.9c-0.3-0.3-0.3-0.8-0.2-1.2l0,0l1.4-0.8c0.3,0,0.6,0.2,0.8,0.4l8.7,10.9
	C42.2,32.2,42.1,33,41.6,33.4z"/>
<path class="st0" d="M25.69,24.27c-1.09,0-2.17-0.26-3.16-0.79l-4.03-2.32L8.31,15.47c-0.7-0.35-1.29-0.94-1.72-1.36l-0.84-0.83
	l0.96-0.69c0.69-0.5,1.81-1.09,3.18-1.09h30.3c1.49,0,2.89,0.65,3.95,1.84l0.76,0.86l-1.86,1.24L28.9,23.47
	C27.89,24,26.79,24.27,25.69,24.27z M9.09,13.62c0.05,0.03,0.11,0.06,0.16,0.09l14.25,8.03c1.37,0.72,3.04,0.72,4.43-0.02l3.89-2.2
	l9.89-5.62c-0.41-0.23-0.92-0.4-1.51-0.4H9.9C9.61,13.5,9.34,13.54,9.09,13.62z"/>
<line class="st2" x1="20.3" y1="21.1" x2="19" y2="20.3"/>
<line class="st2" x1="32.4" y1="20.3" x2="31" y2="21.1"/>
</svg>
