<?xml version="1.0" encoding="utf-8"?>
<!-- Generator: Adobe Illustrator 28.1.0, SVG Export Plug-In . SVG Version: 6.00 Build 0)  -->
<svg version="1.1" id="Lager_1" xmlns="http://www.w3.org/2000/svg" xmlns:xlink="http://www.w3.org/1999/xlink" x="0px" y="0px"
	 viewBox="0 0 50 50" style="enable-background:new 0 0 50 50;" xml:space="preserve">
<style type="text/css">
	.st0{fill:#F7F0F0;}
	.st1{fill:#1F1F20;stroke:#1F1F20;stroke-miterlimit:10;}
</style>
<circle class="st0" cx="24.7" cy="25" r="23.6"/>
<path class="st1" d="M17.5,28.7c2.8,4.8,7.6,7.5,12,7.2c-0.4-1.3-0.5-2.6-0.2-3.7l9-0.8c0.2,0.3,0.4,0.5,0.6,0.8
	c1.8,3,1.2,6.6-1.2,8c-0.1,0-0.2,0.1-0.2,0.1c-0.1,0.1-0.2,0.1-0.2,0.1C29.5,45,18.6,40.9,13,31.3c-5.8-9.5-4-20.9,3.8-25.5
	c0.1-0.1,0.3-0.2,0.5-0.2l0,0c0.1-0.1,0.2-0.1,0.3-0.2C20,4,23.4,5.2,25.2,8.2c0,0.1,0.1,0.1,0.1,0.2l-5.4,8c-0.9-0.4-1.8-1-2.6-1.8
	C14.6,18.1,14.6,23.8,17.5,28.7z"/>
</svg>
